<?xml version="1.0" standalone="no"?>
<!DOCTYPE svg PUBLIC "-//W3C//DTD SVG 20010904//EN"
 "http://www.w3.org/TR/2001/REC-SVG-20010904/DTD/svg10.dtd">
<svg version="1.0" xmlns="http://www.w3.org/2000/svg"
 width="168.000000pt" height="299.000000pt" viewBox="0 0 168.000000 299.000000"
 preserveAspectRatio="xMidYMid meet">

<g transform="translate(0.000000,299.000000) scale(0.100000,-0.100000)"
fill="#000000" stroke="none">
<path d="M853 1970 c5 -18 1 -19 -42 -14 -25 3 -68 10 -94 16 -54 12 -63 8
-48 -20 9 -18 6 -21 -36 -32 -66 -16 -155 -60 -150 -73 2 -7 13 -13 26 -15 19
-3 13 -11 -41 -54 -35 -28 -76 -56 -92 -63 l-29 -13 29 -18 c16 -10 30 -19 32
-20 5 -3 -81 -149 -92 -156 -14 -10 11 -27 39 -28 18 -1 17 -3 -7 -23 -34 -27
-34 -33 -7 -40 16 -4 20 -10 14 -24 -33 -77 -47 -126 -39 -131 5 -4 10 -28 10
-53 2 -50 22 -97 57 -132 16 -16 22 -35 24 -70 1 -28 10 -62 22 -83 16 -26 19
-40 11 -54 -14 -27 -12 -37 3 -16 9 13 20 16 40 11 35 -9 40 -18 26 -49 -15
-33 -29 -33 -29 -1 0 24 -1 24 -20 8 -20 -17 -28 -39 -11 -29 5 3 11 -3 14
-14 3 -11 21 -27 41 -35 20 -9 36 -20 36 -25 0 -14 -16 -12 -52 6 -16 9 -28
11 -24 6 3 -5 19 -15 36 -22 26 -11 30 -18 30 -49 0 -32 -31 -101 -45 -101
-18 0 -45 92 -46 155 0 39 -5 81 -10 95 -5 16 -7 -8 -4 -67 4 -93 4 -93 -20
-93 -13 0 -27 5 -30 10 -11 18 -44 10 -61 -15 -12 -19 -15 -42 -12 -96 3 -61
7 -74 28 -91 22 -18 34 -19 131 -13 84 6 115 4 152 -9 25 -8 82 -18 127 -22
44 -4 80 -11 80 -15 0 -5 14 -16 32 -25 61 -32 179 14 219 85 18 32 25 37 50
33 28 -4 29 -2 30 34 l1 39 10 -32 c12 -36 16 -38 71 -22 33 9 37 14 37 42 l0
32 19 -24 19 -25 41 27 c23 15 46 25 51 22 5 -3 12 0 16 6 5 8 3 9 -7 4 -12
-7 -12 -6 -1 6 11 12 15 11 26 -3 14 -20 26 -14 26 13 0 23 -20 35 -30 19 -5
-8 -14 -2 -30 20 -28 39 -22 47 15 18 27 -21 28 -21 42 -2 9 10 22 34 29 52 8
18 18 31 23 28 11 -7 28 33 36 85 14 93 -34 259 -88 306 -17 15 -17 13 3 -14
17 -24 24 -49 27 -106 6 -94 -5 -119 -46 -107 -16 4 -31 7 -33 5 -2 -1 -20 -5
-40 -9 l-37 -7 15 53 c16 55 70 178 78 178 2 0 4 -21 4 -46 0 -25 3 -48 6 -52
3 -3 6 6 6 19 0 14 6 31 13 38 10 11 10 13 0 7 -8 -5 -13 -1 -13 11 0 10 -4
24 -9 32 -18 28 -111 -192 -111 -260 0 -18 3 -20 12 -11 16 16 58 15 58 0 0
-7 20 -26 45 -42 37 -23 44 -32 39 -50 -12 -44 -69 -101 -63 -65 5 41 -2 59
-26 65 -14 3 -31 1 -39 -5 -23 -19 -29 5 -10 36 10 15 24 34 33 41 12 10 13
12 0 12 -8 0 -26 -20 -41 -44 -24 -41 -25 -46 -10 -67 12 -17 12 -20 1 -14 -8
5 5 -13 29 -40 l43 -49 -28 -22 c-37 -31 -51 -30 -55 3 -2 15 -12 32 -23 38
-48 24 -48 26 -18 59 l28 31 -30 -25 c-16 -14 -34 -28 -38 -31 -5 -4 -3 -17 3
-29 8 -15 8 -20 1 -16 -15 10 -14 5 9 -48 10 -25 16 -46 12 -46 -4 0 -15 20
-25 45 -11 25 -23 45 -28 45 -5 0 -9 7 -9 15 0 17 16 20 23 5 3 -6 4 -5 3 2
-2 7 -11 12 -21 11 -14 -1 -16 4 -10 30 12 52 7 138 -10 164 -13 20 -14 30 -4
64 12 39 13 40 25 18 11 -21 13 -19 30 35 18 58 19 58 30 31 13 -32 19 -26 29
28 6 33 25 53 25 26 0 -22 19 3 26 34 3 17 22 50 40 71 40 46 58 105 49 153
-6 32 -5 34 15 28 19 -6 16 4 -24 84 -50 98 -56 119 -26 82 20 -23 20 -23 20
-2 0 24 -54 136 -70 146 -19 12 -10 22 16 17 l27 -5 -30 44 c-17 24 -42 56
-56 71 -23 24 -24 29 -10 37 14 7 12 11 -13 24 -80 41 -244 63 -271 36 -8 -8
-13 -5 -18 10 -4 13 -30 34 -65 51 -70 35 -74 36 -67 10z m-210 -147 l-18 -28
25 16 c29 18 80 30 80 18 0 -15 -44 -39 -51 -28 -3 6 -21 -7 -43 -32 -30 -35
-36 -39 -36 -21 0 28 18 73 37 95 24 25 27 13 6 -20z m-34 -208 c-6 -20 -9
-50 -7 -68 l3 -32 49 68 c28 37 51 67 52 67 1 0 -1 -20 -4 -45 -5 -46 3 -55
27 -32 14 13 14 10 -4 -52 l-7 -23 32 18 c17 11 56 41 86 68 30 26 56 47 58
45 2 -2 6 -16 10 -31 4 -19 2 -28 -6 -28 -10 0 -10 -2 0 -8 7 -5 15 -24 18
-43 l6 -34 -54 2 -53 1 45 -7 c38 -5 42 -8 22 -14 -119 -43 -119 -183 1 -221
27 -9 93 22 106 50 23 51 7 130 -33 163 -12 10 -13 18 -4 37 9 20 14 22 26 11
8 -6 21 -25 28 -42 7 -16 13 -23 14 -14 0 9 -11 32 -24 52 -23 34 -24 39 -12
79 l12 43 29 -85 29 -85 13 50 c33 123 28 117 47 55 9 -30 19 -81 23 -113 5
-49 8 -55 18 -40 7 10 17 32 23 48 10 30 10 30 11 -13 1 -61 -19 -233 -31
-257 -7 -15 -4 -14 13 5 25 28 89 161 89 184 0 20 31 36 70 36 91 0 111 -140
32 -223 -53 -56 -116 -72 -160 -41 -12 8 -22 13 -22 9 0 -3 14 -14 30 -24 l30
-18 -24 -26 c-20 -22 -34 -27 -73 -27 -74 0 -152 -26 -215 -70 -49 -35 -64
-40 -110 -40 -72 0 -79 8 -52 48 22 32 23 32 34 13 6 -12 15 -21 21 -21 5 0 2
11 -7 25 -21 32 -15 102 12 139 21 27 76 51 99 42 8 -3 15 -1 15 4 0 25 -86 4
-118 -28 -19 -19 -20 -19 -40 23 -50 102 -186 143 -278 82 -50 -33 -77 -82
-82 -148 -5 -63 -10 -69 -34 -41 -30 33 -48 82 -48 127 0 40 34 170 60 230 7
17 9 16 10 -10 l1 -30 14 32 c13 31 42 53 67 53 7 -1 -1 -7 -19 -15 -25 -10
-33 -22 -39 -49 -13 -72 16 -111 62 -81 35 22 49 86 29 126 -14 27 -21 30 -46
25 -16 -3 -29 -3 -29 0 0 18 26 48 53 60 31 14 31 15 4 9 l-28 -6 23 43 22 43
6 -35 5 -35 40 37 c22 21 41 38 42 38 1 0 -3 -16 -8 -35z m-89 -225 c0 -5 -4
-10 -10 -10 -5 0 -10 5 -10 10 0 6 5 10 10 10 6 0 10 -4 10 -10z m350 -35 c0
-8 -4 -15 -10 -15 -5 0 -10 7 -10 15 0 8 5 15 10 15 6 0 10 -7 10 -15z m-190
-84 c56 -29 100 -94 100 -147 0 -24 -4 -52 -9 -62 -5 -9 -14 -30 -21 -47 -7
-17 -15 -24 -17 -17 -3 7 2 28 11 47 10 21 16 53 14 79 -4 53 -18 51 -16 -2 0
-20 -2 -47 -6 -59 -7 -21 -10 -20 -50 26 -24 26 -50 58 -58 70 -8 12 -29 23
-46 25 -37 4 -92 -26 -99 -55 -3 -10 -9 -19 -13 -19 -5 0 -15 -3 -24 -6 -12
-5 -16 1 -16 23 0 43 40 115 79 140 43 29 121 31 171 4z m-90 -111 c0 -5 6 -7
14 -4 20 8 41 -32 23 -43 -17 -10 -41 -53 -30 -53 4 0 1 -5 -7 -11 -13 -8 -13
-9 2 -7 9 2 17 -1 16 -7 0 -5 -4 -9 -10 -7 -5 1 -7 -2 -3 -8 4 -6 -8 -10 -30
-10 -29 0 -39 6 -55 33 -26 42 -25 81 2 107 22 20 78 28 78 10z m-112 -85 c0
-13 -4 -23 -8 -20 -3 2 -7 -1 -8 -8 -1 -7 -5 -29 -8 -49 -5 -32 -2 -41 24 -68
87 -86 226 19 151 114 -43 55 10 79 55 25 46 -54 31 -142 -29 -179 -38 -24
-118 -29 -161 -11 -65 26 -96 140 -53 195 26 33 37 33 37 1z m93 -75 c21 0 41
5 44 10 8 13 25 3 25 -15 0 -8 -11 -17 -25 -21 -14 -3 -25 -10 -25 -14 0 -5
10 -6 23 -3 12 3 18 2 14 -3 -12 -12 -60 -17 -52 -5 3 6 0 8 -9 5 -16 -6 -66
17 -85 40 -7 9 -10 23 -7 32 5 14 9 13 32 -5 17 -13 41 -21 65 -21z m-61 -52
c0 -5 -7 -8 -15 -8 -8 0 -15 2 -15 4 0 2 -3 12 -6 21 -6 15 -4 15 15 4 11 -8
21 -17 21 -21z m309 -18 c-8 -5 -39 -12 -68 -16 -50 -6 -52 -6 -41 12 10 16
21 18 68 15 36 -2 51 -6 41 -11z m609 -64 c3 -12 -1 -17 -10 -14 -7 3 -15 13
-16 22 -3 12 1 17 10 14 7 -3 15 -13 16 -22z m42 -26 c0 -5 -5 -10 -11 -10 -5
0 -7 5 -4 10 3 6 8 10 11 10 2 0 4 -4 4 -10z m-937 -52 c-5 -34 -7 -36 -27
-27 l-22 11 25 28 c14 15 26 27 27 26 1 0 -1 -18 -3 -38z m567 2 c22 -11 40
-24 40 -28 -1 -12 -27 -42 -37 -42 -6 0 -16 -7 -23 -15 -17 -20 -31 -19 -23 3
6 16 5 16 -14 0 -11 -10 -25 -18 -31 -18 -14 0 -16 16 -2 25 5 3 7 12 4 20 -9
22 -19 10 -22 -24 -1 -19 3 -31 10 -32 38 -3 76 5 104 22 19 11 39 16 49 13
38 -15 -4 -160 -56 -193 -15 -9 -19 -6 -24 19 -9 41 -60 90 -93 90 -33 1 -73
27 -51 34 8 2 21 7 29 10 8 2 -27 2 -78 -1 -79 -5 -92 -3 -87 9 4 11 28 17 79
21 82 7 126 20 108 31 -16 10 37 76 61 76 10 0 36 -9 57 -20z m-389 -56 c87
-1 109 -9 83 -28 -15 -12 -16 -26 -8 -146 l9 -133 -70 6 c-98 9 -147 27 -164
63 -23 45 -27 171 -7 218 15 37 17 38 49 30 17 -4 66 -9 108 -10z m662 0 c3
-3 3 -12 0 -20 -4 -11 -9 -12 -19 -3 -8 6 -14 15 -14 20 0 10 24 12 33 3z
m-971 -91 c21 -4 33 -17 51 -57 13 -28 38 -65 55 -82 l30 -32 -77 -11 c-122
-18 -151 3 -151 110 0 61 17 92 45 83 11 -3 32 -8 47 -11z m447 15 c-2 -2 -16
-14 -31 -27 l-28 -24 0 26 c0 24 4 27 32 27 17 0 29 -1 27 -2z m86 -30 c20
-18 28 -37 34 -80 11 -82 25 -86 18 -5 -4 52 -2 67 9 67 39 0 76 -88 58 -139
-20 -56 -125 -100 -190 -79 -35 12 -40 18 -52 63 -19 72 -9 144 23 173 14 12
37 22 50 22 13 0 36 -10 50 -22z m332 -8 c-1 -11 -2 -20 -4 -20 -1 0 -7 9 -13
20 -8 16 -8 20 4 20 9 0 14 -8 13 -20z m180 -12 c-3 -8 -6 -5 -6 6 -1 11 2 17
5 13 3 -3 4 -12 1 -19z m-907 -87 l9 -34 -29 28 c-28 27 -28 28 -12 53 15 24
17 24 20 6 2 -10 7 -34 12 -53z"/>
<path d="M377 1333 c-4 -3 -7 -11 -7 -17 0 -6 5 -5 12 2 6 6 9 14 7 17 -3 3
-9 2 -12 -2z"/>
<path d="M1288 1308 c-13 -13 -19 -20 -14 -15 22 16 47 6 61 -25 13 -30 14
-31 15 -9 0 14 -7 33 -17 43 -18 20 -4 25 28 8 11 -6 19 -7 19 -1 0 11 -24 21
-50 21 -11 0 -29 -10 -42 -22z"/>
<path d="M378 1293 c7 -3 16 -2 19 1 4 3 -2 6 -13 5 -11 0 -14 -3 -6 -6z"/>
<path d="M993 1245 c0 -8 4 -15 9 -15 4 0 8 4 8 9 0 6 -4 12 -8 15 -5 3 -9 -1
-9 -9z"/>
<path d="M676 945 c-9 -26 -7 -32 5 -12 6 10 9 21 6 23 -2 3 -7 -2 -11 -11z"/>
<path d="M760 711 c-5 -11 -9 -46 -8 -78 l1 -58 6 65 c3 36 10 71 14 78 5 6 6
12 3 12 -3 0 -10 -9 -16 -19z"/>
<path d="M619 623 c-8 -9 -9 -14 -2 -10 7 4 13 0 15 -10 2 -11 -8 -27 -26 -40
-34 -26 -36 -27 -36 -13 0 6 6 10 14 10 8 0 17 4 20 9 3 4 -6 6 -19 3 -41 -7
-32 -35 23 -65 21 -12 40 -16 55 -11 12 5 28 7 35 5 35 -6 60 63 27 75 -8 4
-15 14 -15 23 0 40 -65 57 -91 24z m79 -18 c2 -11 11 -28 19 -37 20 -22 13
-53 -12 -54 -11 0 -30 -4 -43 -8 -16 -5 -32 -1 -55 13 -18 11 -26 21 -18 21 8
0 22 -7 32 -16 12 -11 25 -13 41 -8 13 4 29 7 36 5 19 -3 27 30 10 43 -8 6
-18 21 -22 33 -4 13 -17 24 -34 26 -19 4 -17 4 8 3 26 -1 36 -6 38 -21z"/>
</g>
</svg>
