<?xml version="1.0" standalone="no"?>
<!DOCTYPE svg PUBLIC "-//W3C//DTD SVG 20010904//EN"
 "http://www.w3.org/TR/2001/REC-SVG-20010904/DTD/svg10.dtd">
<svg version="1.0" xmlns="http://www.w3.org/2000/svg"
 width="168.000000pt" height="299.000000pt" viewBox="0 0 168.000000 299.000000"
 preserveAspectRatio="xMidYMid meet">

<g transform="translate(0.000000,299.000000) scale(0.100000,-0.100000)"
fill="#000000" stroke="none">
<path d="M772 2080 l5 -50 -36 6 c-20 4 -64 15 -98 24 l-63 17 0 -42 c0 -45
-10 -55 -53 -55 -12 0 -39 -5 -59 -10 l-37 -11 14 -47 c8 -26 15 -50 15 -53 0
-4 -29 -19 -65 -34 l-65 -28 24 -32 c18 -24 22 -35 14 -43 -9 -9 -8 -18 0 -37
13 -29 8 -46 -34 -102 -28 -36 -20 -46 25 -33 19 5 29 5 26 -1 -3 -5 -8 -44
-11 -86 -2 -48 -14 -107 -30 -153 -19 -54 -24 -85 -20 -113 8 -49 40 -113 63
-126 13 -7 18 -24 20 -61 1 -30 10 -65 22 -85 19 -33 19 -37 5 -72 -12 -28
-15 -57 -10 -120 6 -83 6 -83 -19 -83 -13 0 -27 5 -30 10 -11 18 -44 10 -61
-15 -12 -19 -15 -42 -12 -96 3 -61 7 -74 28 -91 22 -18 34 -19 131 -13 83 5
115 4 151 -8 25 -9 81 -19 123 -23 56 -5 83 -12 97 -26 39 -39 152 -14 219 49
26 24 27 24 80 9 75 -23 109 -20 177 14 105 52 150 133 139 249 -4 49 -2 59
14 69 20 13 26 47 9 57 -12 7 -42 -20 -33 -29 12 -11 23 -6 23 11 0 9 3 14 6
10 10 -10 -7 -47 -22 -47 -8 0 -13 4 -9 9 3 5 1 13 -5 16 -8 5 -7 12 2 23 11
14 10 15 -5 9 -13 -5 -28 1 -47 16 l-28 24 34 12 c47 17 91 75 105 137 10 45
9 60 -5 101 -17 45 -21 90 -14 138 2 13 -5 23 -19 29 -14 7 -24 23 -28 46 -4
19 -13 42 -21 51 -13 15 -12 16 11 12 24 -5 25 -4 19 28 -6 30 -24 83 -49 142
-6 14 -2 17 19 17 14 0 26 4 26 9 0 5 -19 33 -42 61 -78 96 -76 88 -40 117 18
13 32 28 32 32 0 5 -24 15 -52 23 l-53 15 2 42 c2 45 1 46 -27 31 -16 -9 -23
-2 -49 43 -32 54 -65 97 -75 97 -3 0 -6 -13 -6 -30 0 -16 -3 -30 -7 -30 -5 0
-43 29 -85 65 -42 36 -79 65 -81 65 -2 0 -7 -18 -10 -41 -3 -22 -8 -43 -10
-46 -3 -3 -38 16 -77 41 -39 25 -73 46 -77 46 -3 0 -3 -23 -1 -50z m-87 -240
c-4 -12 -9 -19 -12 -16 -4 3 -13 1 -20 -6 -11 -9 -16 -9 -22 1 -5 7 -14 -2
-26 -29 -24 -52 -37 -51 -29 3 8 53 23 83 24 47 l0 -24 16 22 c8 12 18 21 22
18 4 -2 16 0 27 4 25 10 28 7 20 -20z m31 -7 c-10 -10 -19 5 -10 18 6 11 8 11
12 0 2 -7 1 -15 -2 -18z m382 -125 c12 -40 25 -89 30 -108 l8 -35 17 30 c16
29 16 28 10 -55 l-6 -85 23 20 23 20 -7 -20 c-7 -25 -35 -219 -31 -223 1 -1
23 29 49 68 26 38 50 70 54 70 4 0 18 -9 32 -20 35 -27 43 -25 37 10 -8 38 13
41 48 5 43 -42 32 -140 -23 -198 -53 -56 -116 -72 -160 -41 -12 8 -22 13 -22
9 0 -3 14 -14 32 -25 l32 -19 -38 -34 c-53 -49 -142 -91 -184 -89 -19 2 -45
-4 -58 -13 -17 -11 -50 -15 -123 -15 l-100 0 22 34 c21 33 22 33 40 15 25 -27
30 -24 11 6 -21 32 -15 102 12 139 21 29 72 50 97 40 10 -3 17 -1 17 5 0 26
-85 6 -118 -27 -19 -19 -20 -19 -40 23 -27 55 -75 92 -139 105 -66 15 -118 1
-162 -42 -44 -43 -61 -85 -61 -149 l0 -52 -21 19 c-35 32 -59 90 -59 143 0 68
14 101 40 96 11 -2 18 0 15 6 -4 5 -11 7 -16 4 -5 -4 -9 6 -9 22 l0 28 23 -29
c49 -61 149 -24 170 64 8 36 -39 58 -110 50 -29 -3 -53 -5 -53 -4 0 0 9 30 21
65 30 92 38 102 39 49 1 -96 11 -99 41 -10 16 45 31 85 34 88 3 3 5 -19 5 -49
0 -87 9 -89 74 -18 31 34 56 60 56 58 0 -2 -4 -19 -9 -37 -6 -21 -6 -32 1 -32
15 0 67 38 114 82 l41 39 7 -41 7 -42 41 58 c38 53 43 56 48 35 5 -22 7 -21
70 28 36 27 70 50 76 50 6 1 21 -32 32 -71z m-647 -290 c0 -10 2 -10 6 0 2 6
20 12 40 12 31 0 34 -2 27 -22 -15 -52 -41 -61 -69 -25 -16 21 -16 21 -1 -5
17 -30 8 -44 -17 -25 -25 19 -26 77 -2 77 8 0 15 -6 16 -12z m225 -144 c41
-19 96 -83 89 -102 -3 -8 0 -10 6 -6 8 5 10 -11 7 -57 -2 -34 -10 -65 -16 -67
-6 -2 -9 -9 -6 -16 3 -7 -2 -19 -11 -26 -13 -10 -15 -9 -15 6 0 11 7 28 15 38
17 22 19 80 4 111 -7 16 -8 13 -5 -15 2 -19 -1 -49 -6 -67 l-9 -33 -42 48
c-23 26 -49 58 -57 71 -28 42 -134 22 -147 -28 -2 -9 -15 -21 -29 -28 -23 -11
-24 -10 -24 21 0 46 39 117 79 143 41 28 117 31 167 7z m784 -64 c0 -5 -10
-15 -22 -21 -23 -12 -23 -12 -4 10 21 23 26 26 26 11z m11 -67 c13 -39 4 -56
-22 -48 -14 5 -28 -1 -45 -20 -13 -14 -29 -23 -34 -20 -6 3 -10 2 -10 -3 0
-19 -32 -22 -54 -5 -20 15 -22 21 -13 49 6 21 18 35 33 38 13 4 24 11 24 16 0
6 7 10 15 10 8 0 15 3 15 8 0 4 18 7 40 7 36 0 41 -3 51 -32z m-853 7 c25 -24
28 -40 7 -40 -8 0 -18 -12 -21 -27 -4 -16 -14 -33 -23 -40 -11 -8 -12 -12 -3
-13 6 0 12 -4 12 -9 0 -5 -14 -9 -31 -9 -24 1 -36 9 -50 32 -19 32 -24 73 -11
92 24 36 88 44 120 14z m-138 -76 c0 -14 -4 -23 -8 -20 -5 3 -9 0 -10 -7 -15
-95 -15 -93 18 -120 93 -78 222 24 149 117 -43 55 10 79 55 25 26 -31 35 -56
15 -44 -6 4 -5 -3 3 -15 10 -18 10 -24 1 -27 -7 -3 -13 -9 -13 -14 0 -6 5 -7
10 -4 13 8 13 2 -2 -30 -6 -14 -15 -26 -20 -26 -4 -1 -12 -2 -17 -3 -5 0 -13
-5 -18 -10 -5 -5 -2 -6 7 -1 13 7 13 6 0 -8 -25 -26 -132 -27 -167 -1 -60 44
-81 138 -42 188 26 33 39 33 39 0z m996 -41 c-2 -3 -16 -6 -29 -7 -14 0 -23
-5 -20 -10 3 -5 0 -7 -8 -4 -22 7 -23 40 -3 52 41 24 59 23 62 -2 2 -13 1 -26
-2 -29z m-862 -4 c-3 -5 -10 -7 -15 -3 -5 3 -7 10 -3 15 3 5 10 7 15 3 5 -3 7
-10 3 -15z m-50 -31 c20 0 42 5 50 11 14 12 26 5 26 -15 0 -8 -11 -16 -25 -20
-14 -3 -25 -10 -25 -15 0 -5 12 -4 28 1 25 9 26 9 8 -5 -23 -17 -33 -19 -40
-6 -3 5 -15 7 -26 4 -12 -3 -20 0 -20 6 0 7 -4 10 -9 6 -5 -3 -22 5 -37 18
-19 17 -25 29 -20 42 6 17 8 17 30 -5 16 -14 37 -22 60 -22z m816 32 c0 -5 -5
-10 -11 -10 -5 0 -7 5 -4 10 3 6 8 10 11 10 2 0 4 -4 4 -10z m-52 -36 c1 0
-10 -1 -26 0 -18 1 -28 6 -28 17 0 15 2 15 26 1 14 -9 26 -17 28 -18z m114 15
c31 19 35 4 9 -44 -14 -27 -35 -49 -55 -58 -17 -7 -42 -19 -56 -25 -15 -6 -19
-11 -9 -11 26 -1 76 -63 94 -116 18 -55 13 -149 -9 -142 -6 2 -11 8 -11 13 0
5 -4 15 -8 22 -5 8 -3 12 7 12 9 0 16 4 16 9 0 4 -11 6 -24 4 -20 -4 -26 1
-36 31 -16 50 -30 54 -17 5 5 -22 16 -43 23 -46 8 -3 14 -13 14 -24 0 -10 9
-24 21 -33 16 -11 19 -19 12 -31 -8 -14 -18 -4 -54 54 l-45 71 -62 -57 c-34
-32 -62 -65 -62 -74 0 -9 7 -33 15 -53 15 -36 15 -36 -10 -36 -14 0 -25 5 -25
11 0 5 -5 7 -10 4 -6 -3 -19 -3 -30 0 -19 6 -19 7 5 39 35 46 51 100 53 180 1
38 5 73 9 79 3 6 1 7 -5 3 -8 -5 -12 5 -12 32 0 24 -8 49 -20 65 -11 14 -20
30 -20 35 0 19 35 18 73 -2 48 -25 50 -48 3 -30 -9 3 -13 11 -9 17 3 6 1 7 -5
3 -6 -4 -22 -2 -34 4 -19 9 -19 7 5 -14 15 -14 36 -26 47 -26 10 0 27 -3 37
-6 15 -5 15 -4 3 5 -12 8 -7 11 21 11 30 0 43 7 73 40 20 23 41 38 47 34 6 -3
5 3 -3 15 -7 12 -17 21 -23 21 -5 0 -3 4 5 10 9 6 19 5 28 -2 10 -9 19 -9 34
1z m-939 -72 c-4 -6 -12 -3 -20 8 -20 28 -16 41 7 20 11 -10 17 -22 13 -28z
m620 12 c4 -16 3 -18 -9 -8 -16 13 -19 29 -5 29 5 0 11 -9 14 -21z m132 -7
c-3 -3 -11 0 -18 7 -9 10 -8 11 6 5 10 -3 15 -9 12 -12z m-345 -26 c-14 -38
-13 -72 5 -105 13 -26 13 -30 -9 -50 -25 -24 -40 -25 -164 -15 -70 5 -74 7
-68 27 3 12 6 30 6 39 0 29 26 44 101 57 64 12 78 18 103 48 32 39 41 38 26
-1z m-420 -51 c27 -14 28 -17 19 -45 -13 -37 -29 -39 -29 -3 0 25 0 26 -20 8
-20 -18 -28 -41 -11 -31 5 3 11 -3 14 -14 3 -11 21 -27 41 -35 20 -9 36 -20
36 -25 0 -13 -4 -13 -45 4 -19 8 -35 13 -35 10 0 -3 16 -12 35 -20 29 -12 35
-19 35 -44 0 -34 -22 -94 -39 -104 -33 -21 -73 216 -49 286 12 33 10 32 48 13z
m150 -69 c-10 -32 -16 -36 -45 -36 -25 0 -35 5 -40 21 -4 11 -5 22 -3 24 7 6
93 33 96 30 2 -2 -1 -20 -8 -39z m27 22 c-3 -8 -6 -5 -6 6 -1 11 2 17 5 13 3
-3 4 -12 1 -19z m-134 -20 c-7 -41 -8 -42 -28 -34 -14 5 -13 10 6 36 13 16 24
30 26 30 1 0 0 -15 -4 -32z m124 -20 c-3 -8 -6 -5 -6 6 -1 11 2 17 5 13 3 -3
4 -12 1 -19z m423 -14 c28 -11 40 -22 37 -33 -2 -9 -8 -15 -14 -14 -6 1 -17
-4 -23 -12 -17 -20 -31 -19 -23 3 6 16 5 16 -14 0 -11 -10 -25 -18 -31 -18
-14 0 -16 16 -2 25 5 3 7 12 4 20 -9 22 -19 10 -22 -24 -2 -33 1 -35 53 -31
39 3 77 25 101 61 10 16 22 29 25 29 8 0 -1 -107 -12 -153 -6 -20 -24 -53 -41
-73 l-32 -36 -13 38 c-15 46 -58 84 -93 84 -14 0 -34 7 -44 15 -20 15 -18 17
29 29 11 2 -24 2 -79 -1 -81 -5 -98 -3 -94 8 2 8 18 15 34 16 85 7 165 26 155
36 -8 8 -6 16 6 29 20 22 41 23 93 2z m-370 -29 c83 -1 115 -11 85 -28 -16 -8
-17 -21 -11 -126 4 -64 10 -125 13 -135 5 -18 1 -19 -68 -13 -109 9 -146 22
-165 59 -24 47 -30 174 -10 222 15 37 17 38 49 30 17 -5 66 -9 107 -9z m-308
-92 c21 -4 33 -17 52 -57 13 -28 38 -65 54 -82 l30 -31 -78 -12 c-119 -18
-150 3 -150 104 0 62 18 98 44 90 12 -4 33 -9 48 -12z m447 15 c-2 -2 -16 -14
-31 -27 l-28 -24 0 26 c0 24 4 27 32 27 17 0 29 -1 27 -2z m86 -30 c19 -17 28
-38 35 -82 13 -82 24 -84 17 -3 -3 39 -1 67 5 67 54 0 89 -106 52 -158 -32
-46 -131 -79 -182 -61 -34 12 -49 39 -58 107 -15 117 60 191 131 130z m401
-35 c15 -27 32 -51 37 -55 7 -4 6 -12 -2 -22 -17 -20 -41 -4 -35 22 6 24 -33
85 -49 76 -8 -5 -7 -2 2 9 7 9 15 17 16 17 2 0 16 -21 31 -47z m-796 -72 l9
-34 -29 28 c-28 27 -28 28 -12 53 15 24 17 24 20 6 2 -10 7 -34 12 -53z m723
40 c19 9 20 8 6 -3 -13 -10 -14 -17 -5 -33 6 -11 15 -23 21 -27 6 -5 6 -11 -2
-19 -8 -8 -16 1 -32 36 -12 26 -21 50 -20 54 0 3 3 0 6 -6 3 -10 10 -10 26 -2z
m-64 -102 c14 0 20 -3 12 -6 -18 -7 -121 16 -121 27 0 5 19 3 41 -5 23 -8 53
-15 68 -16z m58 -15 c-3 -3 -12 -4 -19 -1 -8 3 -5 6 6 6 11 1 17 -2 13 -5z"/>
<path d="M1025 1700 l-30 -8 32 -1 c17 0 35 4 38 9 7 11 3 11 -40 0z"/>
<path d="M1031 1668 c-1 -19 -21 -26 -21 -8 0 6 -4 10 -10 10 -23 0 5 -30 29
-31 14 0 35 -4 46 -9 18 -8 18 -9 2 -9 -10 -1 -15 -5 -12 -11 9 -14 -29 -12
-44 3 -11 10 -11 8 -1 -13 12 -23 12 -24 -4 -11 -9 8 -19 11 -23 7 -3 -3 -1
-6 5 -6 7 0 12 -4 12 -10 0 -5 -9 -10 -19 -10 -11 0 -23 -5 -27 -12 -5 -8 2
-9 24 -5 21 4 34 1 43 -9 7 -8 20 -19 30 -25 15 -7 17 -6 13 5 -3 8 -12 17
-20 20 -19 7 -18 35 3 43 21 8 53 35 53 45 0 4 -16 10 -34 14 -20 3 -37 13
-39 23 -4 14 -5 14 -6 -1z"/>
<path d="M981 1624 c0 -11 3 -14 6 -6 3 7 2 16 -1 19 -3 4 -6 -2 -5 -13z"/>
<path d="M678 1463 c7 -3 16 -2 19 1 4 3 -2 6 -13 5 -11 0 -14 -3 -6 -6z"/>
<path d="M800 1444 c-25 -12 -48 -20 -51 -18 -14 9 -20 -37 -9 -70 28 -86 153
-132 240 -88 46 23 80 75 80 123 0 36 -2 39 -37 48 -21 6 -70 14 -109 19 -63
7 -75 6 -114 -14z m68 -33 c38 -1 42 -3 42 -26 0 -46 -63 -91 -95 -67 -19 13
-45 61 -45 82 0 17 5 20 28 16 15 -2 46 -5 70 -5z m136 -35 c-11 -38 -54 -74
-96 -81 -22 -4 -41 -5 -44 -2 -3 2 9 18 26 35 16 17 30 41 30 54 0 21 3 23 45
20 41 -4 45 -6 39 -26z"/>
<path d="M1282 1303 c-15 -16 -21 -22 -12 -15 28 21 50 14 65 -20 14 -33 14
-33 15 -6 0 16 -7 31 -17 37 -27 14 -7 26 22 13 14 -6 25 -8 25 -3 0 11 -25
21 -51 21 -10 0 -31 -12 -47 -27z"/>
<path d="M995 1250 c-4 -6 -11 -7 -17 -4 -7 4 -8 2 -4 -5 6 -9 11 -9 22 0 14
11 18 19 10 19 -3 0 -8 -5 -11 -10z"/>
<path d="M1425 1130 c3 -5 8 -10 11 -10 2 0 4 5 4 10 0 6 -5 10 -11 10 -5 0
-7 -4 -4 -10z"/>
<path d="M1390 781 c0 -6 4 -13 10 -16 6 -3 7 1 4 9 -7 18 -14 21 -14 7z"/>
<path d="M760 711 c-12 -23 -12 -117 -1 -146 5 -11 6 11 3 51 -3 44 0 79 7 92
6 12 9 22 7 22 -3 0 -10 -9 -16 -19z"/>
</g>
</svg>
