<?xml version="1.0" standalone="no"?>
<!DOCTYPE svg PUBLIC "-//W3C//DTD SVG 20010904//EN"
 "http://www.w3.org/TR/2001/REC-SVG-20010904/DTD/svg10.dtd">
<svg version="1.0" xmlns="http://www.w3.org/2000/svg"
 width="168.000000pt" height="299.000000pt" viewBox="0 0 168.000000 299.000000"
 preserveAspectRatio="xMidYMid meet">

<g transform="translate(0.000000,299.000000) scale(0.100000,-0.100000)"
fill="#000000" stroke="none">
<path d="M951 2109 l-73 -51 -29 21 c-36 27 -115 71 -127 71 -5 0 -14 -19 -21
-42 -7 -23 -17 -53 -22 -66 l-9 -23 -30 21 c-36 26 -46 21 -62 -31 l-12 -40
-65 3 -66 3 0 -40 c0 -22 3 -55 7 -72 7 -31 6 -33 -22 -33 -37 0 -37 -10 -4
-49 17 -21 24 -37 19 -49 -8 -18 -43 -152 -40 -152 1 0 26 7 56 16 44 13 83
15 209 11 172 -6 219 -17 369 -89 l84 -40 -6 -87 c-3 -47 -11 -99 -18 -114
-15 -34 -51 -42 -191 -42 l-108 0 -43 47 c-79 86 -170 100 -243 36 -36 -32
-36 -32 -68 -14 -61 33 -86 63 -85 104 l1 37 8 -37 c7 -38 35 -69 81 -88 24
-10 32 -8 70 20 40 29 49 31 105 28 68 -4 120 -32 148 -79 19 -32 52 -39 188
-39 121 0 125 4 127 130 l2 89 -43 25 c-105 61 -244 96 -386 96 -173 0 -273
-33 -272 -90 1 -8 7 -1 15 15 8 19 14 24 14 13 1 -15 5 -16 28 -7 42 16 251
22 308 9 28 -6 62 -14 78 -17 36 -7 34 -19 -5 -27 -38 -8 -75 -32 -64 -43 4
-4 10 -2 14 4 10 16 57 33 89 33 26 0 25 0 -8 -23 -40 -27 -59 -60 -59 -104 0
-23 -5 -33 -15 -33 -8 0 -15 9 -15 21 0 11 -4 18 -9 15 -4 -3 -25 3 -45 14
-26 13 -57 18 -104 18 l-66 -1 2 39 c3 31 -2 44 -20 61 -21 19 -26 20 -54 8
-27 -11 -32 -19 -37 -60 -4 -26 -4 -51 -1 -56 8 -13 -10 -11 -25 4 -11 10 -12
9 -6 -3 8 -13 7 -13 -9 -1 -14 12 -17 24 -12 60 4 34 3 41 -4 26 -8 -15 -9
-11 -5 18 4 21 9 46 13 55 5 16 5 16 -11 0 -9 -9 -21 -18 -27 -20 -6 -2 -16
-32 -22 -66 -9 -49 -9 -68 0 -83 15 -24 15 -32 0 -23 -7 4 -8 3 -4 -5 4 -7 9
-49 10 -94 3 -86 18 -129 59 -170 16 -16 22 -35 23 -69 1 -28 10 -62 22 -82
20 -34 20 -38 5 -73 -12 -29 -14 -57 -9 -120 7 -91 6 -92 -52 -71 -31 12 -35
11 -53 -11 -14 -18 -19 -39 -19 -91 0 -58 3 -71 26 -95 l25 -27 108 7 c84 5
117 4 152 -8 25 -9 78 -19 119 -23 49 -4 83 -13 99 -25 55 -44 174 -14 228 58
15 20 38 46 49 57 12 12 31 37 43 56 16 27 21 31 22 15 0 -19 1 -19 9 1 9 24
30 41 30 25 0 -5 -4 -13 -10 -16 -5 -3 -10 -19 -10 -35 0 -16 -4 -32 -10 -35
-5 -3 -7 0 -4 8 3 8 0 18 -6 22 -6 3 -10 3 -9 -2 1 -4 1 -33 0 -64 -1 -55 -2
-57 -33 -64 -29 -6 -31 -8 -13 -15 28 -12 117 -12 135 0 13 8 13 10 -2 10 -29
0 -30 18 -2 72 22 43 25 60 20 102 -7 61 18 149 51 183 45 44 18 115 -37 98
-23 -7 -34 -35 -36 -95 -3 -74 -19 -123 -48 -155 l-28 -30 6 31 c4 18 8 74 8
125 2 109 -13 150 -70 200 -34 30 -35 32 -17 45 10 8 23 14 29 14 5 0 17 6 25
14 14 13 55 36 157 88 18 10 41 29 49 42 l16 24 26 -23 c52 -46 61 -53 67 -48
3 4 6 2 6 -3 0 -6 -6 -16 -12 -23 -11 -10 -10 -11 5 -6 9 4 17 11 17 17 0 5 5
6 10 3 6 -4 7 -11 4 -17 -4 -6 -1 -9 7 -6 19 6 24 37 9 52 -9 8 -14 8 -17 -1
-3 -7 -9 -13 -14 -13 -4 0 -5 8 -2 18 6 15 5 15 -10 3 -15 -12 -17 -10 -17 23
l0 36 43 -6 c23 -3 49 0 57 5 13 9 13 14 -2 43 -9 18 -27 57 -39 86 -24 58
-62 87 -108 80 -25 -4 -26 -2 -22 40 2 25 6 39 11 32 9 -15 20 11 20 51 0 22
5 29 20 29 25 0 25 16 0 58 l-20 32 24 10 c40 15 38 26 -13 73 l-49 46 20 26
c11 14 19 28 17 30 -2 2 -33 9 -69 16 -36 7 -66 13 -67 14 -2 1 11 27 27 57
l30 55 -37 7 c-21 3 -71 6 -111 6 -50 0 -74 4 -76 13 -25 94 -55 172 -67 175
-8 1 -48 -20 -88 -49z m-211 -112 c0 -4 5 -5 10 -2 13 8 13 -31 0 -56 -14 -25
-25 -24 -37 4 -10 21 -11 21 -26 -15 -9 -21 -19 -38 -22 -38 -7 0 -23 41 -30
78 l-6 27 17 -30 17 -30 25 55 c22 51 25 54 38 36 8 -11 14 -24 14 -29z m45
-46 c-3 -12 -11 -19 -16 -16 -5 4 -5 14 2 26 13 26 23 18 14 -10z m138 -139
c26 -12 47 -24 47 -27 0 -4 -4 -3 -10 0 -6 4 -10 -11 -10 -39 0 -25 -4 -47 -8
-50 -5 -3 -7 21 -4 52 3 38 1 54 -6 47 -5 -5 -12 -38 -14 -72 -3 -51 -2 -60 9
-51 7 6 13 7 13 2 0 -4 7 1 16 12 14 17 15 17 10 1 -3 -10 -6 -23 -6 -29 0 -6
-7 -8 -15 -5 -8 4 -17 2 -20 -3 -3 -5 -22 -7 -43 -5 l-37 4 35 -15 35 -14 -35
5 c-19 3 -66 10 -105 16 -70 11 -235 7 -267 -6 -25 -10 -34 19 -19 64 34 101
40 108 100 125 82 23 269 16 334 -12z m70 -39 c-7 -2 -13 -13 -13 -23 0 -10
-4 -21 -8 -24 -10 -6 -9 25 2 42 4 6 13 12 19 11 9 0 9 -2 0 -6z m21 -48 c3
-8 1 -15 -3 -15 -5 0 -11 7 -15 15 -3 8 -1 15 3 15 5 0 11 -7 15 -15z m-44
-91 c0 -8 -19 -13 -24 -6 -3 5 1 9 9 9 8 0 15 -2 15 -3z m-627 -176 c-7 -29
-11 -64 -8 -76 4 -16 2 -21 -5 -17 -17 11 1 145 19 145 5 0 2 -24 -6 -52z
m802 -38 c8 -13 -17 -140 -28 -140 -6 0 -7 16 -3 38 3 20 6 54 6 75 0 35 12
48 25 27z m165 -5 c11 -13 8 -15 -13 -15 -39 0 -63 -44 -83 -149 -17 -88 -17
-95 -1 -123 16 -28 16 -29 0 -26 -30 6 -44 48 -40 113 6 82 24 137 59 179 31
38 58 45 78 21z m28 -41 c25 -11 32 -18 22 -22 -26 -9 -38 -35 -51 -104 -11
-63 -11 -70 7 -90 10 -12 13 -18 7 -14 -8 4 -13 1 -13 -8 0 -16 -25 -24 -52
-18 -49 12 -28 229 26 264 14 10 11 10 54 -8z m-155 -10 c3 -4 1 -16 -5 -28
-7 -11 -13 -27 -14 -34 -3 -19 -13 -27 -21 -18 -4 4 -2 11 6 15 7 5 12 11 12
15 -6 43 4 67 22 50z m-841 -36 c-7 -7 -12 -8 -12 -2 0 14 12 26 19 19 2 -3
-1 -11 -7 -17z m338 -4 c23 -11 60 -48 60 -59 0 -3 -19 5 -41 17 -54 28 -144
30 -183 5 -15 -10 -30 -17 -32 -14 -9 8 50 58 75 63 14 3 31 7 36 9 14 4 56
-6 85 -21z m-280 -14 c15 -11 40 -24 55 -30 26 -10 27 -11 11 -33 -30 -41 -46
-86 -46 -132 0 -25 -4 -45 -10 -45 -5 0 -23 21 -41 46 -30 44 -31 50 -27 118
4 68 12 96 25 96 2 0 17 -9 33 -20z m281 -44 c24 -13 43 -29 41 -36 -1 -6 2
-9 7 -6 13 8 34 -21 25 -35 -4 -7 -3 -9 3 -6 29 18 31 -89 2 -144 -11 -23 -23
-39 -25 -36 -3 3 1 18 9 34 23 44 27 123 6 123 -7 0 -9 -11 -6 -26 2 -15 0
-42 -5 -61 -9 -33 -11 -34 -23 -17 -7 11 -29 36 -49 57 -20 21 -36 42 -36 46
0 13 -44 28 -70 24 -34 -5 -71 -31 -77 -54 -3 -10 -9 -19 -13 -19 -5 0 -15 -3
-24 -6 -22 -8 -21 32 0 87 37 91 142 125 235 75z m433 -40 c-5 -21 -3 -24 14
-19 17 4 20 -2 26 -44 3 -27 14 -59 23 -72 15 -23 15 -25 -8 -42 -44 -34 -105
-59 -145 -59 -22 0 -49 -6 -60 -14 -19 -14 -207 -27 -218 -15 -2 2 7 18 20 34
22 27 26 28 35 13 5 -10 15 -18 20 -18 6 0 3 10 -5 22 -21 29 -20 81 1 121 21
41 39 54 88 62 30 4 36 8 25 15 -11 7 0 10 35 10 28 1 66 7 85 14 57 22 71 20
64 -8z m-254 -6 c53 -2 54 -2 22 -13 -18 -5 -43 -20 -57 -32 l-24 -23 -12 32
c-7 17 -14 34 -16 38 -2 3 4 5 14 3 10 -2 43 -4 73 -5z m-237 -69 c9 -9 8 -14
-3 -21 -12 -8 -11 -10 5 -10 18 -1 17 -2 -4 -11 -21 -8 -23 -14 -18 -50 3 -22
3 -38 0 -35 -4 3 -12 1 -19 -5 -21 -17 -57 -3 -77 30 -24 40 -21 67 8 97 19
19 32 24 61 21 19 -3 41 -10 47 -16z m-143 -69 c0 -10 -7 -27 -15 -38 -8 -10
-15 -35 -15 -56 0 -51 44 -88 106 -88 76 0 115 64 82 135 -6 14 -15 25 -20 25
-14 0 -9 30 6 36 35 13 86 -46 86 -99 0 -32 -27 -97 -41 -97 -5 0 -7 5 -3 12
4 7 3 8 -5 4 -6 -4 -9 -12 -6 -17 6 -9 -17 -21 -68 -33 -16 -4 -26 -3 -23 2 3
5 -7 7 -22 5 -86 -12 -157 130 -101 201 24 30 39 34 39 8z m45 -79 c22 -11 73
-7 91 8 12 10 24 2 24 -17 0 -7 -14 -15 -30 -19 -17 -4 -28 -11 -24 -16 15
-25 -83 8 -106 36 -6 7 -7 20 -4 30 6 15 9 16 18 3 6 -8 20 -19 31 -25z m-25
-61 c-7 -3 -16 2 -21 9 -16 25 -9 32 12 13 13 -12 16 -20 9 -22z m125 8 c-3
-5 -11 -10 -16 -10 -6 0 -7 5 -4 10 3 6 11 10 16 10 6 0 7 -4 4 -10z m285 -30
c-14 -11 -32 -20 -40 -20 -10 0 -7 7 10 20 14 11 32 20 40 20 10 0 7 -7 -10
-20z m-114 -168 c-12 -12 -14 6 -8 68 l7 65 3 -64 c2 -35 1 -66 -2 -69z m-302
109 c26 -11 27 -40 0 -62 -11 -9 -14 -6 -14 17 l0 28 -22 -24 c-25 -27 -34
-16 -19 23 11 30 18 32 55 18z m821 -11 c3 -5 -3 -10 -15 -10 -12 0 -18 5 -15
10 3 6 10 10 15 10 5 0 12 -4 15 -10z m-784 -63 c-6 -36 -7 -37 -26 -23 -11 9
-15 15 -7 16 7 0 17 12 23 26 13 36 18 27 10 -19z m80 7 c-5 -16 -10 -21 -10
-12 -1 18 10 51 15 45 2 -1 -1 -16 -5 -33z m680 -7 c-8 -8 -11 -5 -11 9 0 27
14 41 18 19 2 -9 -1 -22 -7 -28z m-223 26 c-10 -2 -26 -2 -35 0 -10 3 -2 5 17
5 19 0 27 -2 18 -5z m-548 -73 c11 0 20 -7 20 -16 0 -8 -5 -12 -11 -8 -8 4 -9
-1 -4 -15 10 -31 -3 -92 -25 -121 l-19 -25 -20 45 c-20 43 -30 168 -15 182 3
3 16 -5 29 -18 13 -13 33 -24 45 -24z m590 40 c13 -8 13 -10 -2 -10 -9 0 -20
5 -23 10 -8 13 5 13 25 0z m-13 -34 l25 -13 -28 -18 c-19 -12 -29 -14 -32 -7
-3 9 -10 8 -25 -3 -27 -19 -41 -19 -33 0 3 8 9 22 12 31 5 12 1 14 -22 8 -27
-7 -28 -6 -14 10 16 20 72 16 117 -8z m-379 -9 c60 0 82 -3 82 -12 0 -8 -5
-15 -12 -17 -8 -3 -9 -39 -2 -142 l9 -139 -70 6 c-96 8 -147 27 -164 63 -23
46 -27 184 -6 223 15 30 19 32 48 25 18 -4 69 -7 115 -7z m444 -85 c-6 -2 -8
-11 -5 -21 6 -23 -17 -68 -50 -99 l-25 -24 -7 31 c-9 44 -40 78 -77 87 -35 7
-68 25 -68 36 0 4 12 9 28 11 15 3 2 3 -28 1 -30 -1 -73 -3 -95 -4 -25 -1 -34
-4 -23 -8 16 -6 15 -9 -2 -32 l-20 -25 0 35 c0 19 4 40 8 46 4 6 40 14 80 18
41 3 82 11 93 17 16 8 19 6 19 -15 0 -30 13 -35 70 -24 29 5 55 19 75 38 l30
31 3 -48 c2 -26 -1 -49 -6 -51z m113 88 c3 -5 1 -10 -4 -10 -6 0 -11 5 -11 10
0 6 2 10 4 10 3 0 8 -4 11 -10z m-11 -42 c-8 -27 -12 -33 -19 -27 -7 8 7 49
17 49 5 0 6 -10 2 -22z m-862 -55 c21 -4 33 -17 51 -57 14 -29 38 -66 54 -83
l29 -30 -72 -11 c-119 -19 -154 5 -154 103 0 62 18 98 44 90 12 -4 33 -9 48
-12z m513 -5 c34 -15 55 -56 55 -107 0 -22 5 -43 10 -46 13 -8 13 75 0 109
-11 30 -9 31 29 11 30 -15 51 -59 51 -104 -1 -48 -60 -98 -132 -111 -88 -16
-123 24 -123 141 0 69 11 94 50 109 28 12 30 12 60 -2z m-372 -137 c-2 -3 -15
7 -29 21 -25 25 -26 26 -7 47 l18 22 11 -43 c6 -24 9 -45 7 -47z"/>
<path d="M540 1790 c0 -5 5 -10 11 -10 5 0 7 5 4 10 -3 6 -8 10 -11 10 -2 0
-4 -4 -4 -10z"/>
<path d="M712 1778 c-7 -7 -12 -17 -12 -23 0 -5 -9 -16 -20 -23 -32 -19 -14
-33 37 -28 51 5 69 17 60 40 -8 21 -47 21 -47 0 0 -10 6 -14 15 -10 8 3 15 1
15 -3 0 -5 -16 -9 -36 -8 -20 1 -32 3 -25 5 6 2 11 9 11 17 0 7 7 18 16 26 12
10 20 10 35 1 14 -9 25 -10 40 -1 11 6 18 13 15 16 -3 3 -12 0 -20 -6 -10 -8
-16 -9 -21 -1 -8 14 -48 13 -63 -2z"/>
<path d="M520 1730 c0 -5 5 -10 10 -10 6 0 10 5 10 10 0 6 -4 10 -10 10 -5 0
-10 -4 -10 -10z"/>
<path d="M500 1690 c0 -5 7 -10 15 -10 8 0 15 5 15 10 0 6 -7 10 -15 10 -8 0
-15 -4 -15 -10z"/>
<path d="M557 1663 c-3 -5 29 -7 71 -5 135 4 150 9 40 10 -59 1 -109 -1 -111
-5z"/>
<path d="M526 1047 c3 -10 9 -15 12 -12 3 3 0 11 -7 18 -10 9 -11 8 -5 -6z"/>
<path d="M757 713 c-4 -3 -6 -36 -6 -72 l2 -66 7 70 c8 73 8 79 -3 68z"/>
<path d="M444 1510 c-12 -5 -25 -13 -28 -19 -5 -8 49 14 63 26 8 6 -14 2 -35
-7z"/>
<path d="M1600 105 c-15 -18 -5 -35 21 -35 24 0 37 29 18 41 -19 12 -25 11
-39 -6z m27 -11 c-3 -3 -12 -4 -19 -1 -8 3 -5 6 6 6 11 1 17 -2 13 -5z"/>
<path d="M1421 44 c0 -11 3 -14 6 -6 3 7 2 16 -1 19 -3 4 -6 -2 -5 -13z"/>
</g>
</svg>
