<?xml version="1.0" standalone="no"?>
<!DOCTYPE svg PUBLIC "-//W3C//DTD SVG 20010904//EN"
 "http://www.w3.org/TR/2001/REC-SVG-20010904/DTD/svg10.dtd">
<svg version="1.0" xmlns="http://www.w3.org/2000/svg"
 width="440.000000pt" height="781.000000pt" viewBox="0 0 440.000000 781.000000"
 preserveAspectRatio="xMidYMid meet">

<g transform="translate(0.000000,781.000000) scale(0.100000,-0.100000)"
fill="#000000" stroke="none">
<path d="M2185 5546 c-131 -50 -264 -124 -355 -196 l-37 -29 -124 6 c-147 6
-219 -7 -344 -66 -267 -125 -454 -340 -586 -674 -76 -193 -93 -280 -93 -472 1
-175 14 -249 64 -361 34 -75 99 -173 156 -234 l42 -45 -23 -69 c-39 -117 -50
-222 -31 -313 26 -128 107 -264 192 -320 20 -13 21 -20 17 -96 -8 -131 27
-251 98 -332 17 -19 27 -35 22 -35 -16 0 -60 -91 -78 -160 -15 -56 -15 -80 -6
-170 6 -58 13 -142 16 -187 l6 -83 -61 0 c-47 0 -68 5 -87 20 -65 51 -147 3
-178 -105 -29 -97 -18 -301 19 -372 20 -39 55 -69 101 -89 54 -22 209 -22 292
0 34 9 111 18 171 21 103 5 114 3 159 -20 26 -14 92 -36 145 -50 107 -27 340
-51 395 -40 32 6 38 2 87 -49 42 -44 64 -58 110 -71 70 -21 108 -16 252 31
123 39 114 38 114 21 0 -28 38 -50 74 -44 20 3 36 1 38 -5 5 -15 159 -38 256
-38 l83 0 52 53 c70 71 116 92 165 76 20 -7 54 -24 76 -38 l38 -25 52 18 c71
25 124 61 132 91 6 22 10 24 43 19 46 -7 71 13 71 57 0 37 -46 87 -87 95 -26
5 -31 14 -53 82 -33 99 -51 112 -161 119 -118 8 -249 -12 -428 -63 l-25 -7 22
34 c12 19 38 66 57 104 38 76 58 189 53 294 -1 41 3 64 16 83 14 22 18 48 18
120 0 125 -24 225 -67 281 l-34 44 46 114 c25 63 54 135 64 162 11 26 19 60
19 75 0 17 10 38 25 52 21 20 28 22 50 12 73 -34 182 4 258 88 26 28 47 56 47
61 0 5 24 36 54 68 71 78 93 146 108 336 13 183 7 243 -31 318 -17 33 -30 61
-29 63 2 1 30 -4 63 -12 33 -7 77 -14 98 -14 34 0 37 2 37 29 0 16 -7 48 -15
72 -18 50 -128 270 -154 309 -10 14 -21 30 -24 36 -5 8 18 10 82 6 48 -2 91
-1 94 4 15 24 -139 257 -269 408 -42 48 -74 90 -71 92 2 3 16 0 31 -6 44 -16
159 -41 165 -35 8 8 -38 44 -164 129 -103 69 -319 186 -344 186 -15 0 -14 21
2 45 22 31 99 226 93 233 -10 9 -153 -28 -285 -74 -100 -36 -122 -41 -116 -26
78 179 135 392 105 392 -53 0 -477 -108 -651 -166 -14 -5 -17 10 -22 103 -10
170 -9 169 -112 129z m-410 -265 l40 -8 -60 -7 c-61 -8 -162 -34 -225 -58
-108 -41 -269 -155 -350 -247 -40 -46 -56 -59 -63 -49 -6 10 -7 9 -3 -4 3 -10
-12 -43 -39 -82 -68 -102 -114 -242 -109 -333 1 -24 -2 -43 -6 -43 -11 0 -50
-64 -59 -97 -7 -25 -8 -24 -30 28 -20 45 -24 74 -27 179 -2 128 13 241 35 248
6 2 9 7 6 12 -14 22 156 227 177 214 7 -5 8 -2 3 5 -7 13 32 48 47 43 5 -1 7
2 5 7 -3 12 75 71 148 110 75 41 148 71 200 80 55 11 261 12 310 2z m143 -60
c42 -8 114 -56 114 -76 0 -5 9 -22 19 -36 55 -77 99 -297 94 -469 -3 -116 -37
-308 -67 -380 l-15 -35 -22 43 c-12 23 -19 48 -15 54 4 6 3 8 -3 5 -6 -4 -18
5 -28 19 -32 50 -76 97 -158 169 -36 32 -183 95 -255 110 -87 18 -137 19 -218
4 -113 -20 -205 -61 -268 -119 -49 -45 -96 -51 -96 -12 0 99 76 311 109 304 7
-1 10 2 6 8 -4 6 6 28 21 48 34 46 195 205 201 199 2 -3 15 5 29 18 51 47 248
132 344 148 45 8 164 6 208 -2z m-1083 -861 c9 -30 17 -60 17 -67 1 -7 5 -10
9 -7 4 2 10 -4 13 -14 4 -10 17 -25 31 -32 13 -7 23 -16 20 -19 -8 -14 121
-11 148 3 15 8 27 12 27 8 0 -18 -92 -122 -102 -116 -6 4 -8 3 -4 -4 9 -15
-75 -71 -132 -88 -25 -8 -71 -14 -103 -14 l-58 0 -7 56 c-14 117 16 333 67
472 11 32 26 73 32 92 10 32 12 23 18 -90 4 -69 15 -150 24 -180z m736 225
c40 -9 79 -21 87 -28 8 -6 18 -11 21 -11 7 2 54 -18 61 -26 3 -3 18 -12 35
-20 35 -17 130 -108 169 -162 15 -20 43 -70 63 -110 l35 -73 -33 -75 c-43 -99
-119 -235 -168 -301 -82 -111 -327 -264 -481 -302 -71 -17 -170 -30 -170 -21
0 2 9 15 21 27 30 33 78 135 94 203 36 151 5 355 -83 544 -19 41 -45 89 -57
105 -12 17 -25 40 -29 53 -4 12 -18 35 -31 51 l-24 28 42 30 c125 88 291 121
448 88z m-543 -152 c-33 -5 -78 -59 -79 -94 0 -13 -3 -18 -6 -11 -8 19 4 55
28 85 15 20 29 27 52 26 30 -2 31 -2 5 -6z m150 -183 c41 -103 82 -241 93
-313 22 -144 -16 -320 -91 -422 -39 -52 -42 -55 -78 -50 -20 3 -38 9 -40 15
-2 6 -8 8 -13 5 -5 -3 -30 1 -56 10 -35 12 -64 33 -105 77 -31 34 -55 65 -52
69 2 4 0 9 -4 11 -30 11 -90 148 -116 265 l-14 61 77 0 c42 0 88 5 102 11 15
5 30 7 33 4 3 -4 6 -2 6 4 0 6 10 13 23 17 20 5 156 126 141 126 -3 0 -1 6 5
14 17 21 51 121 51 153 0 25 13 5 38 -57z m1122 -130 c0 -11 -33 -14 -43 -4
-3 3 -3 12 0 20 4 10 10 11 24 3 10 -5 19 -14 19 -19z m42 -44 c50 -15 127
-68 215 -150 51 -47 64 -67 86 -128 14 -40 28 -82 31 -93 3 -11 4 10 3 47 l-3
66 26 -21 c37 -32 156 -162 221 -243 142 -175 256 -383 297 -545 10 -37 10
-37 -64 -98 -102 -86 -173 -127 -235 -135 -74 -10 -233 -50 -300 -75 -32 -12
-94 -46 -139 -76 l-81 -55 -99 0 -98 0 -41 48 c-23 26 -49 70 -58 100 -15 46
-15 62 -5 125 23 133 98 238 193 266 23 7 76 12 118 12 71 -1 74 0 58 17 -14
13 -35 17 -95 17 -94 -1 -150 -25 -224 -97 -27 -26 -51 -48 -54 -48 -2 0 -4 9
-4 21 0 12 -17 53 -37 93 -47 91 -146 190 -229 231 l-61 29 41 30 c91 65 238
242 306 367 27 51 48 79 63 83 36 9 115 7 164 -6 l47 -11 -61 -17 c-159 -43
-246 -147 -247 -292 0 -57 5 -77 34 -134 74 -144 229 -193 376 -118 211 107
181 454 -50 567 -72 35 -147 51 -214 44 -47 -5 -53 -4 -47 11 3 9 20 54 38 99
36 93 41 96 129 69z m91 -282 c31 -10 57 -29 81 -59 46 -56 96 -169 67 -151
-5 3 -12 22 -16 43 -5 28 -9 33 -17 22 -8 -11 -9 -11 -5 2 6 18 -30 54 -67 68
-12 5 -39 9 -59 9 -38 0 -44 -12 -22 -48 5 -9 0 -8 -13 4 -12 10 -19 23 -16
28 3 4 0 7 -8 6 -20 -5 -109 -98 -103 -109 4 -5 1 -9 -6 -9 -7 0 -10 -3 -6 -6
3 -3 1 -18 -4 -34 -7 -19 -7 -42 1 -72 12 -45 47 -91 61 -82 5 3 9 -2 9 -11 0
-11 5 -15 16 -11 8 3 13 2 10 -3 -7 -11 41 -24 56 -15 6 4 8 3 5 -3 -4 -6 0
-13 8 -17 8 -3 15 -2 15 3 0 5 11 7 24 6 27 -3 88 24 81 35 -3 5 1 11 7 14 9
3 8 8 -4 16 -19 12 -23 46 -10 68 5 7 25 15 44 18 34 6 36 5 43 -26 6 -26 2
-37 -17 -58 -14 -15 -35 -42 -47 -60 -29 -41 -65 -60 -133 -68 -120 -14 -231
37 -271 124 -17 36 -22 66 -22 132 0 75 3 91 28 136 30 54 74 86 151 110 55
17 84 17 139 -2z m-49 -129 c18 -13 18 -14 -2 -12 -11 0 -18 5 -16 9 3 4 1 8
-5 8 -18 0 -23 -21 -9 -37 11 -14 11 -15 -2 -8 -8 6 -18 10 -22 10 -3 0 -9 3
-12 8 -3 4 -3 5 1 2 3 -3 12 4 20 15 17 23 22 24 47 5z m14 -61 c0 -17 -3 -22
-8 -13 -5 6 -6 18 -3 26 8 19 11 16 11 -13z m116 -85 c-3 -5 -10 -7 -15 -3 -5
3 -7 10 -3 15 3 5 10 7 15 3 5 -3 7 -10 3 -15z m86 11 c0 -5 -5 -10 -11 -10
-5 0 -7 5 -4 10 3 6 8 10 11 10 2 0 4 -4 4 -10z m-1448 -190 c57 -18 105 -35
107 -36 2 -2 -17 -26 -43 -54 -26 -28 -59 -75 -73 -106 -34 -74 -54 -199 -47
-284 4 -42 3 -70 -4 -74 -18 -11 -129 120 -169 201 -37 74 -38 81 -37 178 1
101 15 193 40 253 l13 32 55 -39 c35 -24 94 -51 158 -71z m513 25 c33 -8 69
-19 80 -25 11 -5 36 -16 56 -24 46 -18 121 -84 112 -100 -3 -6 -3 -8 2 -4 8 7
40 -20 40 -34 0 -5 5 -12 12 -16 6 -4 27 -37 45 -72 31 -61 33 -71 33 -171 0
-58 -5 -117 -11 -130 -6 -13 -22 -51 -34 -84 -27 -70 -38 -87 -53 -78 -5 3 -7
1 -4 -4 4 -6 -2 -18 -13 -28 -20 -18 -20 -17 -20 23 0 29 9 56 30 89 17 26 30
53 30 60 0 7 4 13 9 13 5 0 7 8 4 18 -2 10 0 34 5 53 14 53 -20 179 -48 179
-4 0 -4 -19 1 -42 14 -74 10 -141 -13 -210 -12 -38 -24 -68 -28 -68 -3 0 -14
17 -23 39 -16 35 -79 103 -132 141 -11 8 -29 33 -38 56 -23 50 -74 107 -118
130 -22 11 -55 17 -95 17 -109 -1 -203 -61 -234 -150 -8 -22 -24 -35 -63 -53
-29 -13 -55 -25 -59 -28 -14 -7 -8 119 8 181 34 133 113 235 220 288 102 51
193 61 299 34z m-75 -334 c19 -10 34 -23 32 -30 -1 -7 2 -10 7 -6 11 6 34 -29
24 -39 -3 -3 -2 -6 4 -6 6 0 13 -9 16 -20 4 -15 -2 -22 -28 -30 -71 -24 -102
-96 -65 -155 12 -19 26 -35 31 -35 15 0 10 -19 -12 -41 -12 -12 -29 -19 -40
-16 -10 3 -19 1 -19 -4 0 -17 -123 -10 -152 9 -38 25 -71 70 -64 87 3 8 0 14
-6 12 -30 -6 -41 164 -12 211 23 39 76 71 136 81 61 10 99 5 148 -18z m140
-179 c39 -24 90 -75 90 -89 0 -7 3 -13 8 -13 4 0 15 -22 25 -49 19 -53 21
-155 4 -144 -6 4 -8 0 -4 -10 12 -31 -32 -134 -73 -171 -21 -19 -35 -38 -32
-42 4 -4 -6 0 -23 11 -30 18 -30 18 -12 -2 17 -20 17 -21 -35 -49 -51 -27 -59
-28 -189 -29 -136 0 -136 0 -205 35 -59 30 -75 45 -111 98 -96 142 -103 334
-16 424 24 25 80 55 87 47 2 -2 6 -30 9 -61 5 -49 3 -59 -16 -75 -19 -17 -20
-17 -14 0 4 10 3 16 -2 12 -6 -3 -10 -13 -9 -23 0 -9 -7 -35 -16 -57 -32 -85
-8 -184 61 -245 66 -58 99 -70 195 -70 100 0 147 19 200 77 76 86 73 213 -8
304 -57 65 -58 95 -4 132 26 18 48 15 90 -11z m-340 -236 c77 -31 181 -15 228
35 l26 28 13 -31 c7 -16 13 -43 13 -58 0 -30 -20 -41 -102 -56 -39 -6 -52 -23
-20 -26 45 -4 82 -3 82 3 0 4 9 9 19 12 14 3 18 1 14 -9 -3 -8 -9 -12 -13 -9
-4 3 -7 -3 -6 -13 1 -15 -10 -17 -79 -19 -132 -4 -253 49 -312 136 -28 41 -28
38 -2 80 l21 34 39 -45 c21 -25 56 -53 79 -62z m745 -16 c27 -18 28 -20 8 -20
-33 0 -123 21 -123 28 0 4 10 26 22 48 l22 42 21 -40 c11 -21 34 -48 50 -58z
m-731 -482 c-9 -24 -16 -67 -17 -96 -2 -51 -3 -53 -27 -47 -35 9 -109 55 -88
55 25 0 98 73 98 98 0 20 12 30 37 31 9 1 8 -10 -3 -41z m-161 -126 c31 -32
119 -72 159 -72 16 0 19 -4 14 -22 -3 -13 -6 -29 -6 -35 0 -21 -28 -15 -118
27 -47 22 -87 38 -89 36 -8 -8 59 -49 125 -77 37 -16 66 -33 65 -38 -1 -5 -8
-51 -14 -102 -12 -92 -36 -157 -87 -232 -23 -34 -25 -32 -82 81 -34 69 -44
101 -55 189 -19 147 -11 264 24 323 l26 45 3 -45 c2 -34 11 -53 35 -78z m389
-59 c64 -24 88 -28 188 -28 63 0 145 4 183 9 59 8 70 6 87 -9 26 -23 26 -45 0
-45 -12 0 -26 -13 -37 -32 -21 -40 -23 -209 -3 -303 7 -33 14 -105 15 -160 2
-90 0 -97 -11 -70 -24 55 -14 4 16 -87 17 -49 30 -90 30 -91 0 -1 -42 -1 -92
0 -156 5 -379 47 -464 88 l-51 25 -31 102 c-44 144 -56 224 -49 342 10 169 60
286 123 286 12 0 56 -12 96 -27z m988 -40 c0 -5 -7 -17 -15 -27 -20 -26 -20
-85 0 -92 8 -4 25 -6 37 -5 13 0 50 1 82 1 70 1 163 40 213 90 l33 32 45 -18
45 -19 0 -83 c0 -132 -29 -229 -96 -318 -31 -42 -74 -85 -97 -99 l-42 -24 -10
62 c-14 80 -42 133 -98 185 -57 52 -103 71 -162 68 -30 -2 -49 2 -57 12 -7 7
-34 27 -61 42 -55 31 -56 31 53 51 70 13 110 28 75 29 -11 0 -69 -4 -130 -10
-60 -5 -165 -11 -232 -14 -121 -4 -123 -4 -123 17 0 43 14 50 107 53 48 1 115
7 148 13 33 5 79 13 103 16 24 3 69 14 100 25 65 20 82 23 82 13z m-430 -173
l45 -1 -40 -21 c-46 -24 -59 -38 -84 -91 -10 -22 -21 -35 -24 -30 -2 4 -8 42
-12 85 l-7 76 39 -9 c21 -5 58 -9 83 -9z m-1240 -7 c14 -9 29 -23 33 -31 6 -9
28 -13 79 -11 l71 2 17 -54 c38 -123 116 -245 214 -337 31 -29 56 -54 56 -55
0 -1 -28 -3 -63 -5 -34 -1 -111 -9 -170 -18 -137 -21 -257 -16 -295 13 -15 11
-38 46 -52 79 -22 52 -25 74 -25 184 0 115 2 130 26 175 14 28 36 56 50 62 31
16 30 16 59 -4z m1456 -42 c89 -41 130 -128 144 -310 5 -62 11 -116 15 -119
42 -42 35 282 -7 335 -27 34 33 34 100 -1 61 -32 112 -142 112 -244 0 -27 -8
-44 -31 -68 -23 -23 -33 -45 -36 -77 -5 -38 -12 -51 -46 -78 -22 -18 -81 -48
-131 -67 -76 -28 -104 -34 -171 -34 -172 1 -221 60 -246 303 -18 176 18 310
98 357 49 28 141 29 199 3z m-1011 -218 c10 -54 24 -116 31 -137 8 -22 12 -41
10 -43 -5 -6 -111 100 -132 132 -15 24 -15 26 14 62 16 21 34 48 41 61 6 12
13 22 15 22 2 0 12 -44 21 -97z m2121 -39 c13 -11 15 -17 6 -20 -6 -3 -10 -10
-6 -15 3 -5 -10 0 -28 11 -28 16 -47 19 -114 15 -148 -8 -464 -91 -529 -139
-16 -11 -19 -26 -19 -82 0 -87 18 -125 62 -136 34 -9 40 -34 9 -32 -9 0 -32 1
-51 2 -33 2 -34 3 -50 70 -17 71 -21 105 -18 164 2 37 4 38 85 77 45 21 89 39
97 38 8 0 58 10 110 21 144 33 195 40 316 41 86 1 114 -2 130 -15z m-178 -59
c-3 -3 -14 -8 -24 -10 -23 -5 -209 -59 -284 -82 -30 -9 -64 -17 -75 -16 -18 0
-20 -6 -18 -74 1 -75 -10 -103 -42 -103 -18 0 -22 7 -39 74 -22 84 -14 110 43
135 53 22 204 54 386 80 50 7 63 6 53 -4z m42 11 c0 -2 -7 -6 -15 -10 -8 -3
-15 -1 -15 4 0 6 7 10 15 10 8 0 15 -2 15 -4z m-601 -338 c13 -34 -5 -49 -19
-16 -12 29 -27 154 -21 188 2 14 10 -12 17 -60 7 -47 17 -97 23 -112z m436 96
c-8 -9 -19 -12 -25 -9 -15 9 -5 20 19 22 19 2 20 0 6 -13z m-115 -87 c0 -2
-10 -12 -22 -23 l-23 -19 19 23 c18 21 26 27 26 19z m-185 -68 c13 -5 -3 -8
-47 -8 -63 -1 -79 5 -61 23 8 8 75 -1 108 -15z"/>
<path d="M1946 2657 c3 -10 9 -15 12 -12 3 3 0 11 -7 18 -10 9 -11 8 -5 -6z"/>
<path d="M2007 1885 c-13 -14 -30 -45 -36 -70 -14 -55 -14 -190 -1 -273 10
-61 39 -147 46 -139 2 2 -5 55 -17 118 -18 102 -19 124 -9 208 13 104 21 130
44 154 9 9 12 18 7 21 -5 3 -20 -6 -34 -19z"/>
<path d="M1665 1665 c-44 -22 -75 -65 -75 -102 0 -19 -9 -43 -23 -58 -21 -25
-26 -26 -60 -17 -34 10 -37 9 -43 -13 -12 -47 44 -125 90 -125 11 0 35 -14 52
-31 46 -44 106 -50 153 -15 27 20 38 23 53 15 26 -14 81 -3 101 19 45 50 39
121 -16 169 -20 17 -33 39 -35 56 -7 91 -112 145 -197 102z m123 -28 c29 -14
52 -56 52 -95 0 -21 7 -32 25 -40 55 -25 69 -114 22 -147 -24 -17 -83 -20 -92
-5 -4 6 -18 1 -36 -12 -38 -28 -96 -29 -134 -3 -34 24 -42 29 -79 46 -28 14
-66 62 -66 85 0 8 11 9 34 4 59 -13 74 5 100 122 13 55 105 79 174 45z"/>
<path d="M1683 1629 c-22 -8 -45 -60 -34 -76 3 -5 15 -15 26 -22 18 -11 17
-12 -13 -8 -28 3 -35 -1 -48 -24 -17 -33 -42 -49 -78 -49 -48 0 -23 -50 26
-52 13 -1 38 -14 56 -30 42 -36 114 -39 148 -7 19 17 26 19 44 9 19 -10 27 -9
49 7 47 36 36 94 -23 118 -28 12 -34 21 -40 54 -10 62 -62 99 -113 80z"/>
<path d="M3725 3015 c-19 -18 -25 -35 -25 -69 0 -61 27 -86 90 -86 76 0 114
52 90 125 -14 42 -35 55 -90 55 -30 0 -47 -6 -65 -25z m81 -7 c-4 -24 -7 -25
-41 -12 -18 7 -19 6 -6 -9 15 -19 9 -33 -8 -22 -20 12 -13 45 10 45 11 0 17 5
14 10 -3 6 3 10 14 10 16 0 20 -5 17 -22z m60 -33 c3 -14 2 -37 -2 -52 -8 -27
-8 -26 -12 12 -2 22 -8 45 -14 52 -8 10 -6 13 6 13 8 0 18 -11 22 -25z m-127
-47 c1 -10 -3 -18 -8 -18 -14 0 -22 31 -15 54 7 21 7 21 15 1 4 -11 8 -28 8
-37z m31 6 c0 -8 -4 -12 -10 -9 -5 3 -10 10 -10 16 0 5 5 9 10 9 6 0 10 -7 10
-16z m60 -36 c0 -14 -8 -18 -37 -18 -21 0 -45 5 -53 10 -11 7 -4 10 28 10 23
0 42 4 42 10 0 5 -7 7 -15 4 -11 -5 -13 -2 -9 9 5 13 9 14 25 4 10 -6 19 -20
19 -29z"/>
</g>
</svg>
