<?xml version="1.0" standalone="no"?>
<!DOCTYPE svg PUBLIC "-//W3C//DTD SVG 20010904//EN"
 "http://www.w3.org/TR/2001/REC-SVG-20010904/DTD/svg10.dtd">
<svg version="1.0" xmlns="http://www.w3.org/2000/svg"
 width="168.000000pt" height="299.000000pt" viewBox="0 0 168.000000 299.000000"
 preserveAspectRatio="xMidYMid meet">

<g transform="translate(0.000000,299.000000) scale(0.100000,-0.100000)"
fill="#000000" stroke="none">
<path d="M797 1948 c-60 -8 -119 -31 -172 -67 -22 -15 -61 -33 -87 -40 -54
-15 -100 -66 -129 -141 -24 -63 -34 -143 -21 -166 8 -14 1 -44 -29 -127 -21
-61 -50 -135 -64 -165 -36 -79 -51 -176 -35 -238 6 -27 13 -59 13 -70 1 -12 7
-19 14 -17 6 3 19 -9 28 -26 l16 -31 39 20 c21 11 42 24 45 30 4 6 11 8 16 4
6 -4 4 -13 -7 -25 -9 -10 -20 -16 -25 -14 -4 3 -18 -5 -30 -17 -12 -13 -18
-16 -14 -8 6 12 5 13 -6 3 -20 -19 -27 -16 -49 20 -20 33 -28 22 -10 -13 21
-39 47 -43 97 -16 54 31 54 31 47 9 -5 -17 -5 -17 6 0 6 9 8 22 4 28 -3 6 12
1 34 -10 39 -20 41 -22 31 -51 -13 -37 -29 -39 -29 -3 0 25 0 26 -20 8 -20
-18 -28 -41 -11 -31 5 3 11 -3 14 -14 3 -11 21 -27 41 -35 20 -9 36 -20 36
-25 0 -13 -4 -13 -46 5 -19 8 -32 11 -30 6 3 -5 19 -14 36 -21 24 -10 30 -19
30 -42 0 -33 -23 -92 -39 -102 -21 -13 -50 73 -52 149 0 39 -5 81 -10 95 -5
16 -7 -8 -4 -67 4 -93 4 -93 -20 -93 -13 0 -27 5 -30 10 -11 17 -43 11 -59
-12 -9 -12 -16 -41 -16 -64 0 -34 -4 -43 -25 -52 -14 -6 -25 -16 -25 -22 0 -7
7 -4 16 4 23 23 32 20 39 -14 12 -55 41 -64 161 -54 66 6 112 6 122 0 9 -6 39
-15 66 -21 57 -13 77 -35 56 -60 -11 -13 -26 -15 -84 -10 -172 15 -336 50
-351 76 -4 5 -1 18 6 27 11 14 9 14 -7 -1 -19 -18 -19 -19 4 -38 73 -59 421
-96 652 -70 126 15 182 27 234 53 27 14 41 17 49 9 6 -6 7 -12 1 -12 -5 -1
-16 -2 -24 -3 -8 0 -16 -10 -17 -21 -1 -16 -1 -16 3 -2 3 9 10 17 15 17 6 0 7
-6 2 -12 -4 -7 6 -4 22 6 19 13 30 15 33 8 2 -7 8 -12 13 -12 6 0 8 4 5 9 -3
4 4 8 16 7 12 0 23 -7 26 -14 2 -7 -2 -11 -8 -10 -7 2 -15 -3 -17 -9 -7 -21
16 -15 29 7 9 14 24 20 48 20 l35 1 -30 24 c-28 23 -28 25 -8 25 45 0 33 21
-26 47 -53 23 -61 30 -61 53 0 14 -6 35 -14 45 -14 19 -15 19 -53 0 -21 -11
-41 -21 -46 -23 -4 -2 -4 4 -1 13 9 23 80 55 93 42 8 -8 11 -6 11 6 0 10 7 29
16 42 10 15 19 63 25 126 5 57 14 106 20 110 6 4 9 11 5 17 -4 6 2 10 13 9 12
-1 17 -6 13 -17 -4 -11 -2 -12 7 -4 17 15 9 49 -10 48 -8 -1 -16 8 -17 20 -2
27 57 224 76 254 18 28 19 88 4 222 -28 247 -145 410 -341 470 -79 25 -207 38
-274 28z m48 -28 c3 -5 -1 -10 -10 -10 -9 0 -13 5 -10 10 3 6 8 10 10 10 2 0
7 -4 10 -10z m-61 -15 c3 -9 -1 -18 -10 -22 -19 -7 -28 2 -21 22 8 19 23 19
31 0z m67 -106 c38 -8 49 -15 49 -30 0 -10 6 -19 13 -19 22 0 51 -37 36 -46
-8 -4 -10 -3 -5 4 4 7 2 12 -3 12 -6 0 -11 -9 -11 -20 0 -14 -6 -20 -17 -18
-11 2 -19 -7 -24 -26 -9 -31 -24 -46 -49 -46 -12 0 -12 2 -2 9 10 6 2 11 -25
16 -60 11 -224 20 -273 15 -30 -3 -7 -7 70 -10 l115 -6 -117 -2 c-133 -2 -130
-5 -115 88 8 50 27 93 27 62 0 -7 5 -12 11 -12 6 0 9 7 5 15 -6 15 8 21 74 29
49 6 182 -3 241 -15z m95 -34 c18 -13 18 -14 -4 -8 -12 3 -25 9 -28 14 -8 14
10 11 32 -6z m54 -45 c0 -5 -2 -10 -4 -10 -3 0 -8 5 -11 10 -3 6 -1 10 4 10 6
0 11 -4 11 -10z m-30 -44 c0 -2 -7 -6 -15 -10 -8 -3 -15 -1 -15 4 0 6 7 10 15
10 8 0 15 -2 15 -4z m-55 -36 c-5 -16 -2 -20 17 -21 18 -1 19 -2 5 -6 -29 -8
-46 4 -40 26 3 12 10 21 15 21 5 0 6 -9 3 -20z m61 -25 c-9 -14 -21 -25 -26
-25 -6 0 -1 9 10 20 11 11 20 25 20 32 0 6 3 8 6 5 4 -4 -1 -18 -10 -32z
m-130 -40 c20 -8 44 -15 53 -15 24 0 91 -59 108 -94 l14 -31 -6 30 c-4 17 -16
40 -27 53 -29 30 -10 28 68 -8 65 -29 66 -30 59 -62 -11 -52 -83 -199 -96
-196 -6 2 -14 -4 -16 -12 -4 -13 -3 -13 6 0 9 13 11 13 11 -2 0 -9 -3 -18 -7
-20 -10 -4 -39 -80 -68 -178 l-23 -75 -91 -3 -91 -3 23 35 c21 33 23 34 36 15
20 -28 34 -23 15 6 -43 65 15 179 91 179 21 0 31 4 26 9 -15 15 -76 -1 -104
-27 l-25 -23 -16 38 c-36 81 -146 133 -233 110 -78 -21 -133 -98 -133 -186 0
-25 -5 -45 -10 -45 -6 0 -24 21 -40 47 -24 37 -30 58 -30 101 0 30 6 68 14 85
7 18 26 75 41 127 42 148 42 149 84 155 20 4 43 8 51 10 37 10 282 -6 316 -20z
m538 -190 c45 -41 34 -139 -22 -198 -52 -55 -117 -73 -158 -42 -10 8 -22 15
-26 15 -4 0 -17 -31 -28 -70 -13 -44 -28 -74 -40 -80 -17 -9 -20 -7 -20 8 0
37 33 128 66 182 18 30 45 82 59 115 40 93 112 123 169 70z m-702 -116 c22
-11 43 -29 45 -40 3 -10 9 -17 13 -14 5 3 11 1 14 -4 4 -5 2 -12 -4 -16 -5 -3
-10 -12 -10 -18 0 -7 4 -6 10 3 15 23 30 -5 30 -58 0 -45 -42 -150 -48 -120
-2 10 4 28 12 40 18 26 21 103 5 114 -8 5 -10 -1 -7 -21 3 -15 2 -43 -4 -61
l-9 -34 -49 57 c-28 31 -50 60 -50 64 0 11 -41 23 -75 20 -31 -2 -75 -36 -75
-58 0 -7 -4 -13 -9 -13 -5 0 -17 -3 -27 -7 -15 -6 -16 -2 -10 36 9 61 30 97
73 126 48 32 117 34 175 4z m-55 -125 c12 -16 11 -20 -4 -32 -12 -9 -18 -26
-18 -55 0 -41 -1 -42 -37 -44 -32 -2 -40 2 -57 31 -21 34 -27 72 -13 92 24 36
105 41 129 8z m-147 -69 c0 -14 -7 -28 -15 -31 -10 -4 -15 -20 -15 -46 0 -58
42 -98 105 -98 35 0 51 6 70 25 32 31 33 82 4 119 -11 15 -18 33 -15 41 17 46
96 -20 96 -80 0 -46 -17 -88 -32 -79 -6 4 -8 3 -5 -3 4 -6 -4 -20 -18 -33 -31
-29 -129 -33 -169 -6 -64 41 -86 137 -45 190 26 33 39 33 39 1z m-95 -54 c4
-15 3 -21 -3 -17 -5 3 -12 17 -15 32 -5 30 8 20 18 -15z m165 -24 c14 -4 38 0
52 7 15 8 29 12 32 8 14 -14 3 -30 -26 -40 l-33 -10 28 -1 c16 -1 26 -5 22
-10 -3 -6 -13 -8 -23 -7 -9 2 -34 6 -54 10 -41 7 -81 48 -71 72 5 13 9 12 27
-4 11 -11 32 -22 46 -25z m-137 -37 c4 -17 3 -19 -9 -9 -8 6 -14 18 -14 26 0
20 16 8 23 -17z m507 -27 c0 -18 -8 -20 -102 -28 -84 -7 -88 -6 -88 13 0 26 4
27 105 27 59 0 85 -4 85 -12z m-515 -14 c-11 -16 -65 -40 -76 -33 -6 4 6 16
27 29 38 21 60 23 49 4z m165 11 c22 -6 23 -8 7 -15 -21 -9 -67 2 -67 15 0 11
24 11 60 0z m548 -13 c9 -8 8 -13 -5 -23 -27 -20 -33 -17 -33 17 0 30 5 31 38
6z m-157 -87 c45 0 50 -14 19 -50 -11 -13 -20 -29 -20 -35 0 -13 -30 -25 -63
-25 -10 0 -16 4 -12 10 3 5 -7 3 -22 -5 -25 -13 -29 -13 -49 6 -14 13 -43 24
-76 28 l-53 7 42 8 c32 6 43 13 47 32 9 34 0 44 -35 44 -18 0 -29 5 -29 14 0
9 21 15 73 20 39 3 86 10 102 14 29 8 30 8 33 -30 3 -37 4 -38 43 -38z m-277
45 c-4 -8 -13 -15 -22 -15 -13 0 -12 3 4 15 24 18 25 18 18 0z m470 -1 c17
-45 -18 -154 -50 -154 -6 0 -17 -7 -24 -15 -17 -20 -31 -19 -23 3 6 16 5 16
-14 0 -11 -10 -25 -18 -31 -18 -14 0 -16 16 -2 25 5 3 7 12 4 20 -9 22 -19 10
-22 -24 -2 -33 1 -34 53 -31 36 2 67 21 104 62 l28 31 -4 -59 c-7 -88 -20
-130 -55 -170 l-32 -36 -13 38 c-15 43 -57 84 -88 84 -11 1 -31 7 -45 15 -26
14 -23 17 25 29 11 2 -24 2 -78 -1 -83 -4 -96 -3 -92 10 4 10 29 16 79 20 83
7 126 20 107 31 -8 5 -4 16 14 38 14 16 25 38 25 49 0 14 7 19 25 19 13 0 28
6 32 13 9 16 43 36 59 37 7 0 15 -7 18 -16z m-537 -49 c-3 -20 2 -29 22 -41
l26 -15 -27 4 c-15 2 -29 1 -30 -3 -2 -4 -18 -10 -36 -13 -30 -6 -32 -5 -28
18 9 47 17 64 34 68 38 10 44 7 39 -18z m140 10 c6 -2 9 -13 6 -24 -5 -18 -13
-21 -64 -21 -62 0 -78 12 -65 45 4 13 16 14 58 10 29 -4 58 -8 65 -10z m-224
-37 c-7 -41 -8 -42 -28 -34 -14 5 -13 10 6 36 13 16 24 30 26 30 1 0 0 -15 -4
-32z m114 -44 c-3 -3 -12 -4 -19 -1 -8 3 -5 6 6 6 11 1 17 -2 13 -5z m56 -19
c56 0 66 -2 60 -15 -12 -25 -15 -124 -5 -150 8 -19 9 -9 5 36 -6 67 12 143 29
126 7 -7 6 -17 -4 -31 -11 -15 -13 -37 -7 -93 4 -40 9 -97 12 -127 l4 -54 -71
6 c-101 9 -144 25 -163 61 -24 46 -29 172 -9 220 15 37 17 38 49 30 17 -4 62
-8 100 -9z m30 8 c-13 -2 -35 -2 -50 0 -16 2 -5 4 22 4 28 0 40 -2 28 -4z
m-330 -100 c20 -4 32 -16 46 -48 10 -23 35 -60 55 -82 l35 -40 -78 -12 c-120
-18 -151 3 -151 104 0 62 18 98 44 90 12 -4 33 -9 49 -12z m437 14 c0 -2 -11
-14 -25 -27 l-25 -23 0 26 c0 22 5 27 25 27 14 0 25 -1 25 -3z m95 -30 c21
-18 28 -35 34 -84 10 -89 25 -92 19 -5 -6 77 3 90 37 55 36 -36 46 -103 19
-141 -34 -49 -135 -80 -189 -58 -28 12 -34 21 -44 66 -14 67 -14 94 3 134 24
59 76 73 121 33z m-395 -106 l9 -34 -29 28 c-28 27 -28 28 -12 53 15 24 17 24
20 6 2 -10 7 -34 12 -53z m720 29 c0 -5 -19 -10 -42 -10 -24 0 -54 -3 -67 -7
-17 -4 -22 -3 -17 6 4 6 11 9 16 6 5 -3 11 -1 15 5 8 13 95 13 95 0z m-20 -28
c0 -8 -43 -32 -56 -32 -16 0 6 25 27 31 13 4 25 7 27 8 1 1 2 -3 2 -7z m-74
-19 c21 -28 16 -35 -18 -28 l-33 6 33 -15 c81 -37 3 -78 -193 -100 l-50 -6 55
20 c37 13 69 35 97 65 23 25 39 45 35 45 -13 1 32 30 46 30 8 0 21 -8 28 -17z
m-336 -113 c11 -11 32 -20 47 -20 54 0 15 -9 -67 -15 l-85 -7 0 31 c0 30 2 31
43 31 29 0 48 -6 62 -20z"/>
<path d="M659 1753 c-16 -21 -39 -60 -39 -68 0 -4 19 -5 43 -3 37 3 42 6 42
28 0 26 -25 35 -33 12 -2 -8 2 -10 14 -5 12 4 15 2 12 -8 -8 -24 -33 -15 -36
12 -3 30 22 46 44 28 14 -12 54 -3 54 12 0 6 -9 5 -21 -2 -15 -8 -24 -8 -32 0
-16 16 -32 14 -48 -6z"/>
<path d="M510 1735 c0 -8 5 -15 10 -15 6 0 10 7 10 15 0 8 -4 15 -10 15 -5 0
-10 -7 -10 -15z"/>
<path d="M900 1710 c0 -5 5 -10 10 -10 6 0 10 5 10 10 0 6 -4 10 -10 10 -5 0
-10 -4 -10 -10z"/>
<path d="M500 1685 c0 -8 5 -15 10 -15 6 0 10 7 10 15 0 8 -4 15 -10 15 -5 0
-10 -7 -10 -15z"/>
<path d="M508 1563 c7 -3 16 -2 19 1 4 3 -2 6 -13 5 -11 0 -14 -3 -6 -6z"/>
<path d="M449 1480 c-13 -12 -18 -18 -10 -14 11 6 13 3 6 -12 -18 -40 -17
-100 0 -114 45 -37 112 66 83 127 -17 35 -48 40 -79 13z m57 -4 c21 -22 18
-88 -6 -114 -24 -25 -31 -27 -48 -10 -21 21 -14 77 13 104 25 25 25 25 3 19
-18 -5 -20 -4 -8 4 20 14 29 14 46 -3z"/>
<path d="M860 1483 c44 -4 45 -5 20 -18 -24 -14 -24 -14 10 -9 45 7 75 -16 95
-71 11 -32 14 -35 15 -15 0 35 -33 86 -69 105 -17 8 -49 14 -73 13 l-43 -1 45
-4z"/>
<path d="M822 1427 c-70 -75 1 -205 97 -177 38 11 58 25 73 54 7 12 -2 8 -19
-11 -54 -58 -139 -41 -163 32 -13 40 -6 71 23 103 11 12 18 22 15 22 -2 0 -14
-10 -26 -23z"/>
<path d="M975 1240 c3 -5 8 -10 11 -10 2 0 4 5 4 10 0 6 -5 10 -11 10 -5 0 -7
-4 -4 -10z"/>
<path d="M1288 1308 c-13 -13 -19 -20 -14 -15 22 16 47 6 61 -25 13 -30 14
-31 15 -9 0 14 -7 33 -17 43 -15 17 -15 18 3 18 11 0 25 -5 32 -12 8 -8 12 -8
12 -1 0 12 -23 23 -50 23 -11 0 -29 -10 -42 -22z"/>
<path d="M605 1140 c10 -11 20 -20 23 -20 3 0 -3 9 -13 20 -10 11 -20 20 -23
20 -3 0 3 -9 13 -20z"/>
<path d="M150 448 c0 -21 0 -21 -14 -2 -8 10 -18 16 -22 11 -11 -10 9 -62 24
-63 6 -1 15 -3 20 -4 9 -4 24 -7 37 -9 6 -1 3 -6 -5 -11 -10 -6 -20 -4 -32 7
-11 9 -18 11 -18 5 0 -15 47 -45 59 -38 5 3 11 3 14 -1 2 -5 2 -2 0 6 -2 9 3
11 14 7 17 -6 17 -5 0 8 -12 9 -14 16 -7 21 6 4 17 1 25 -5 8 -6 19 -9 25 -5
6 4 -4 19 -23 38 -19 18 -36 39 -39 47 -4 13 -7 13 -21 1 -10 -7 -17 -19 -17
-25 0 -6 5 -4 10 4 7 11 8 8 6 -13 -4 -36 -10 -41 -27 -20 -8 9 -9 14 -3 10 7
-4 11 4 10 23 -1 34 -16 41 -16 8z m113 -67 c-1 -2 -9 2 -18 9 -11 10 -18 10
-29 1 -20 -17 -24 -6 -18 46 1 6 17 -3 35 -20 18 -18 31 -34 30 -36z m-58 -21
c-3 -5 -12 -10 -18 -10 -7 0 -6 4 3 10 19 12 23 12 15 0z"/>
<path d="M577 418 c-10 -5 -17 -13 -17 -18 0 -13 59 -30 65 -19 4 5 -5 9 -19
9 -27 0 -43 15 -23 22 21 8 62 -8 59 -23 -3 -11 -1 -11 9 -2 15 15 10 21 -28
32 -17 5 -37 5 -46 -1z"/>
<path d="M1223 355 c0 -11 4 -12 14 -4 7 6 13 13 13 15 0 2 -6 4 -13 4 -8 0
-14 -7 -14 -15z"/>
<path d="M434 343 c15 -4 16 -7 6 -13 -13 -8 5 -12 118 -24 25 -2 42 0 42 6 0
6 9 8 20 5 11 -3 20 -2 20 3 0 4 -35 10 -77 13 -43 3 -94 8 -113 10 -19 3 -26
2 -16 0z"/>
<path d="M1018 343 c6 -2 18 -2 25 0 6 3 1 5 -13 5 -14 0 -19 -2 -12 -5z"/>
<path d="M1058 340 c-4 -12 -107 -30 -163 -29 -29 1 -20 4 33 11 93 13 88 21
-7 12 -50 -5 -71 -11 -71 -20 0 -10 16 -14 53 -15 l52 -2 -40 -8 c-30 -6 -23
-7 27 -3 64 4 132 21 98 24 -9 1 -6 5 8 10 12 5 22 14 22 20 0 13 -7 13 -12 0z
m-45 -37 c-7 -2 -21 -2 -30 0 -10 3 -4 5 12 5 17 0 24 -2 18 -5z"/>
<path d="M1190 340 c0 -5 5 -10 11 -10 5 0 7 5 4 10 -3 6 -8 10 -11 10 -2 0
-4 -4 -4 -10z"/>
<path d="M1246 334 c-11 -8 -14 -14 -7 -14 7 0 9 -4 6 -10 -3 -6 1 -7 10 -3
12 4 13 8 5 13 -9 6 -9 9 1 12 8 3 12 8 9 11 -3 3 -14 -1 -24 -9z"/>
<path d="M1210 311 c0 -6 4 -13 10 -16 6 -3 7 1 4 9 -7 18 -14 21 -14 7z"/>
<path d="M407 299 c7 -7 15 -10 18 -7 3 3 -2 9 -12 12 -14 6 -15 5 -6 -5z"/>
<path d="M1030 284 c-22 -8 -28 -13 -15 -13 11 0 31 6 45 14 31 17 17 17 -30
-1z"/>
<path d="M448 283 c7 -3 16 -2 19 1 4 3 -2 6 -13 5 -11 0 -14 -3 -6 -6z"/>
<path d="M590 280 l-45 -7 48 -1 c26 -1 47 3 47 8 0 6 -1 9 -2 8 -2 0 -23 -4
-48 -8z"/>
<path d="M913 263 c15 -2 37 -2 50 0 12 2 0 4 -28 4 -27 0 -38 -2 -22 -4z"/>
<path d="M473 253 c9 -2 23 -2 30 0 6 3 -1 5 -18 5 -16 0 -22 -2 -12 -5z"/>
<path d="M1008 253 c7 -3 16 -2 19 1 4 3 -2 6 -13 5 -11 0 -14 -3 -6 -6z"/>
<path d="M445 236 c22 -8 73 -15 113 -15 62 -1 72 1 72 17 0 14 -2 14 -9 3 -7
-11 -26 -13 -88 -8 -43 4 -89 9 -103 12 -14 2 -7 -2 15 -9z"/>
<path d="M558 243 c12 -2 30 -2 40 0 9 3 -1 5 -23 4 -22 0 -30 -2 -17 -4z"/>
<path d="M860 234 c0 -15 11 -16 93 -11 50 2 103 10 117 16 l25 12 -25 -6
c-14 -3 -65 -7 -115 -9 -66 -3 -76 -2 -40 3 l50 8 -52 1 c-43 2 -53 -1 -53
-14z"/>
</g>
</svg>
